HIERARCHY
ROOT base
{
	OFFSET 0.0 0.0 0.0
	CHANNELS 6 Xposition Yposition Zposition Zrotation Yrotation Xrotation
	JOINT root
	{
		OFFSET 0 0 0
		CHANNELS 6 Xposition Yposition Zposition Zrotation Yrotation Xrotation
		JOINT chest
		{
			OFFSET 0 4.72302 0
			CHANNELS 3 Zrotation Yrotation Xrotation
			JOINT neck
			{
				OFFSET 0 4.47788 0
				CHANNELS 3 Zrotation Yrotation Xrotation
				End Site
				{
					OFFSET 0.0 0.0 0.0
				}
			}
			JOINT right_shoulder
			{
				OFFSET -0.481 4.87 3.6622
				CHANNELS 3 Zrotation Yrotation Xrotation
				JOINT right_elbow
				{
					OFFSET 0 -5.49576 0
					CHANNELS 3 Zrotation Yrotation Xrotation
					JOINT right_wrist
					{
						OFFSET 0 -5.17894 0
						CHANNELS 3 Zrotation Yrotation Xrotation
						End Site
						{
							OFFSET 0.0 0.0 0.0
						}
					}
				}
			}
			JOINT left_shoulder
			{
				OFFSET -0.481 4.87 -3.6622
				CHANNELS 3 Zrotation Yrotation Xrotation
				JOINT left_elbow
				{
					OFFSET 0 -5.49576 0
					CHANNELS 3 Zrotation Yrotation Xrotation
					JOINT left_wrist
					{
						OFFSET 0 -5.17894 0
						CHANNELS 3 Zrotation Yrotation Xrotation
						End Site
						{
							OFFSET 0.0 0.0 0.0
						}
					}
				}
			}
		}
		JOINT right_hip
		{
			OFFSET 0 0 1.69774
			CHANNELS 3 Zrotation Yrotation Xrotation
			JOINT right_knee
			{
				OFFSET 0 -8.43092 0
				CHANNELS 3 Zrotation Yrotation Xrotation
				JOINT right_ankle
				{
					OFFSET 0 -8.1974 0
					CHANNELS 3 Zrotation Yrotation Xrotation
					End Site
					{
						OFFSET 0.0 0.0 0.0
					}
				}
			}
		}
		JOINT left_hip
		{
			OFFSET 0 0 -1.69774
			CHANNELS 3 Zrotation Yrotation Xrotation
			JOINT left_knee
			{
				OFFSET 0 -8.43092 0
				CHANNELS 3 Zrotation Yrotation Xrotation
				JOINT left_ankle
				{
					OFFSET 0 -8.1974 0
					CHANNELS 3 Zrotation Yrotation Xrotation
					End Site
					{
						OFFSET 0.0 0.0 0.0
					}
				}
			}
		}
	}
	JOINT red_arrow
	{
		OFFSET 0 0 0
		CHANNELS 3 Zrotation Yrotation Xrotation
		End Site
		{
			OFFSET 0.0 0.0 0.0
		}
	}
	JOINT blue_arrow
	{
		OFFSET 0 0 0
		CHANNELS 3 Zrotation Yrotation Xrotation
		End Site
		{
			OFFSET 0.0 0.0 0.0
		}
	}
}
MOTION
Frames: 6
Frame Time: 0.0333333333333333
0 18.08466 0 0 0 0 0 0 0 0 -90 0 0 0 0 0 0 0 0 0 -90 0 0 0 0 0 0 0 0 90 0 0 0 0 0 0 0 0 0 0 0 0 0 0 0 0 0 0 0 0 0 0 0 0 0 0 0 0 0 0
0.570077738165855 0 0.0440247422084212 0 0.616409367280878 0 0 17.0047578454018 0 -7.23031023268947 4.59689543805274E-16 1.25920307403149 -3.51487583114896 -4.78086803762301 -0.00528440060063206 0.436465500257323 -0.221535279183821 -0.165862711635038 -11.3045125652827 5.86702932760792 -4.25563283628427 8.15864815697554 0 0 0 0 0 9.07805780894494 -18.8843769819692 17.8935104084474 37.8877491751669 0 0 0 0 0 30.1037136129921 -6.83877176490058 1.82366629600349 -15.2697809367975 0 0 -7.69456880285742 7.605893174854 -0.0968032397759175 -3.98862165097982 6.07299208109244 -2.20367207532097 -29.4945463456776 0 0 -0.656719806178755 -1.82739420656371 3.35314097367626 0 0 0 0 0 0
1.21371871232986 0 0.0633562586270273 0 0.522208500462395 0 0 16.9967897772789 0 -8.81034090091492 -1.7687114787846 0.380451869551111 -5.36359692543231 -3.57319642499076 -0.0545302434759887 -4.00273522812797 -0.679951219067356 -1.18022429799916 -7.61447028524518 5.05215717699016 -3.36791414883123 2.70823105072576 0 0 0 0 0 9.35089615829994 -20.029814719973 16.0289576900712 39.7099241174158 0 0 0 0 0 29.048486244621 -6.08453987646051 3.80942446310896 -15.0752998379178 0 0 -6.10385294602979 9.38839803291888 -5.872003545253 -1.66159106505705 5.15390168835849 -1.47589784958654 -32.8489956810434 0 0 -10.1306986454371 -1.66276602620876 2.92592648146984 0 0 0 0 0 0
1.88580785691738 0 0.10890679769218 0 0.361326053119347 0 0 17.140427672863 0 -9.49782877533533 -3.01494174521507 -0.892041314261486 -7.26168966369783 -3.02933607629703 -0.403391698007484 -5.6237431424772 -0.835574089971902 -1.30343695668824 -5.24541819773775 4.32375695166611 -3.11938660424463 1.49025261474375 0 0 0 0 0 9.1354522822163 -16.6623099792903 12.6186330045532 40.8763155219789 0 0 0 0 0 25.7647279892942 -5.1398905917168 5.83169047866508 -12.0411513699061 0 0 -5.32764962089095 9.46883697536426 -5.74964353146682 3.36888568122534 4.2254734665273 -0.152521789293623 -42.439974634332 0 0 -23.378158834558 -1.16185906172261 6.00318879008879 0 0 0 0 0 0
2.63040485978127 0 0.117917529866099 0 0.188173457546658 0 0 17.2852553486824 0 -9.32904889242074 -3.24647967434169 -2.05526490329985 -7.0455117566534 -2.254932297485 -0.479384003580632 -6.57688560020551 -0.856475029883142 -1.32781617032944 -3.60520549962068 5.97900520795905 -4.73051267888594 3.89010307904267 0 0 0 0 0 8.05156130010549 -13.2616751661984 9.13300215214699 39.8535459201883 0 0 0 0 0 20.9208011433974 -4.00460834842655 7.17917121104226 -7.82991542109106 0 0 -4.79287601813294 8.86820013576994 -5.35250313046171 9.97260482086361 2.89276312280434 1.60041839857862 -56.5675891400052 0 0 -25.6025569835916 -1.04498070905422 6.2721093410395 0 0 0 0 0 0
3.43029943406582 0 0.0924143623560667 0 0.0449118210894835 0 0 17.3939559340477 0 -8.62231866321196 -2.6912530172523 -2.7329476522765 -5.24902252666855 -1.61447704303102 -0.37758261366332 -5.76907150920693 -0.650517554483972 -1.34110612222122 -2.29887173405604 7.31417877094477 -6.4295745618591 10.1844814110277 0 0 0 0 0 4.93657904138867 -7.77560097045547 6.56447941620713 35.8512053307225 0 0 0 0 0 16.0487397410444 -3.40113659378852 7.5807180697666 -4.97401952249102 0 0 -3.35343096008705 8.31006142902414 -4.90533651431162 17.5381582531534 1.60688396200385 3.78099169232149 -71.4228510187165 0 0 -19.9029718433936 -1.09050212397415 4.72374629938598 0 0 0 0 0 0
